<svg width="112" height="112" viewBox="0 0 112 112" fill="none" xmlns="http://www.w3.org/2000/svg">
<rect width="112" height="112" rx="56" fill="#0D3543"/>
<path d="M20.3555 56.9648C20.4831 55.9076 20.7109 54.9049 21.0391 53.957C21.3672 52.9909 21.7682 52.0612 22.2422 51.168C22.7161 50.2565 23.2448 49.3633 23.8281 48.4883C24.4115 47.6133 25.0312 46.7292 25.6875 45.8359C26.0703 45.3438 26.4896 44.8424 26.9453 44.332C27.401 43.8216 27.8932 43.3568 28.4219 42.9375C28.9505 42.5182 29.5156 42.181 30.1172 41.9258C30.737 41.6523 31.3841 41.5156 32.0586 41.5156C32.4232 41.5156 32.7057 41.543 32.9062 41.5977C33.1068 41.6341 33.2526 41.7253 33.3438 41.8711C33.4531 41.9987 33.5169 42.1901 33.5352 42.4453C33.5534 42.7005 33.5534 43.0286 33.5352 43.4297C33.5352 43.8854 33.4531 44.3503 33.2891 44.8242C33.125 45.2982 32.8971 45.7448 32.6055 46.1641C32.3138 46.5833 31.9674 46.957 31.5664 47.2852C31.1654 47.5951 30.737 47.8229 30.2812 47.9688V47.5859C30.2812 47.2031 30.3633 46.8385 30.5273 46.4922C30.7096 46.1458 30.9102 45.7995 31.1289 45.4531C31.3477 45.0885 31.5391 44.7148 31.7031 44.332C31.8854 43.9492 31.9766 43.5391 31.9766 43.1016C31.776 43.1016 31.6029 43.0924 31.457 43.0742C31.3112 43.0378 31.1745 43.0195 31.0469 43.0195C30.9375 43.0013 30.819 43.0195 30.6914 43.0742C30.582 43.1107 30.4453 43.2018 30.2812 43.3477C29.388 44.0768 28.4674 44.9336 27.5195 45.918C26.5898 46.8841 25.7422 47.9323 24.9766 49.0625C24.2109 50.1927 23.582 51.3776 23.0898 52.6172C22.6159 53.8385 22.3789 55.069 22.3789 56.3086C22.3789 56.3633 22.3789 56.4544 22.3789 56.582C22.3971 56.7096 22.4062 56.8372 22.4062 56.9648C22.4245 57.0924 22.4427 57.2109 22.4609 57.3203C22.4792 57.4297 22.4883 57.4935 22.4883 57.5117C22.6888 57.7122 22.9258 57.8307 23.1992 57.8672C23.4909 57.9036 23.7096 57.9219 23.8555 57.9219C24.6393 57.9219 25.3685 57.7852 26.043 57.5117C26.7357 57.2383 27.4102 56.9466 28.0664 56.6367C28.7227 56.3086 29.3789 56.0078 30.0352 55.7344C30.7096 55.4609 31.4206 55.3242 32.168 55.3242C32.168 55.6159 31.9948 55.944 31.6484 56.3086C31.3203 56.6549 30.8828 57.0013 30.3359 57.3477C29.8073 57.694 29.2148 58.0312 28.5586 58.3594C27.9023 58.6693 27.2552 58.9518 26.6172 59.207C25.9974 59.4622 25.4232 59.6628 24.8945 59.8086C24.3841 59.9544 23.9922 60.0273 23.7188 60.0273C23.3177 60.0273 22.9167 59.9544 22.5156 59.8086C22.1146 59.6445 21.75 59.4258 21.4219 59.1523C21.112 58.8789 20.8568 58.5599 20.6562 58.1953C20.4557 57.8125 20.3555 57.4023 20.3555 56.9648ZM32.5781 58.2227C32.7422 57.1836 33.0521 56.2266 33.5078 55.3516C33.9635 54.4766 34.4831 53.7201 35.0664 53.082C35.668 52.4258 36.3151 51.888 37.0078 51.4688C37.7005 51.0495 38.375 50.7852 39.0312 50.6758C39.6875 50.5482 40.2891 50.5755 40.8359 50.7578C41.401 50.9401 41.8568 51.3047 42.2031 51.8516C42.2031 52.2708 42.1029 52.6719 41.9023 53.0547C41.7201 53.4375 41.5104 53.8203 41.2734 54.2031C41.0547 54.5859 40.8451 54.9779 40.6445 55.3789C40.4622 55.7799 40.3711 56.2083 40.3711 56.6641C40.3711 57.138 40.4714 57.5208 40.6719 57.8125C40.8906 58.0859 41.2643 58.2227 41.793 58.2227C42.2305 58.2227 42.6497 58.1589 43.0508 58.0312C43.4701 57.9036 43.8893 57.8398 44.3086 57.8398C44.3815 57.8398 44.5 57.849 44.6641 57.8672C44.8464 57.8672 44.9648 57.8672 45.0195 57.8672C44.8008 58.1771 44.5182 58.4414 44.1719 58.6602C43.8255 58.8789 43.4609 59.0703 43.0781 59.2344C42.6953 59.3802 42.2943 59.4896 41.875 59.5625C41.474 59.6354 41.1003 59.6719 40.7539 59.6719C40.4258 59.6719 40.1341 59.599 39.8789 59.4531C39.6237 59.3073 39.4049 59.1159 39.2227 58.8789C39.0404 58.6419 38.8945 58.3776 38.7852 58.0859C38.694 57.776 38.6484 57.4753 38.6484 57.1836C38.375 57.4935 38.0742 57.8216 37.7461 58.168C37.4362 58.4961 37.099 58.7969 36.7344 59.0703C36.388 59.3438 36.0052 59.5716 35.5859 59.7539C35.1849 59.9362 34.7656 60.0273 34.3281 60.0273C33.8542 60.0273 33.444 59.8542 33.0977 59.5078C32.7513 59.1432 32.5781 58.7148 32.5781 58.2227ZM34.3828 57.375C34.3828 57.5208 34.3828 57.6849 34.3828 57.8672C34.401 58.0495 34.5195 58.168 34.7383 58.2227C35.194 58.1133 35.7135 57.8763 36.2969 57.5117C36.8802 57.1289 37.4271 56.6914 37.9375 56.1992C38.4479 55.6888 38.8763 55.151 39.2227 54.5859C39.569 54.0026 39.7422 53.4466 39.7422 52.918C39.7422 52.8815 39.7331 52.8268 39.7148 52.7539C39.7148 52.6628 39.7148 52.599 39.7148 52.5625C39.0951 52.5625 38.4661 52.6901 37.8281 52.9453C37.1901 53.2005 36.6159 53.556 36.1055 54.0117C35.5951 54.4492 35.1758 54.9596 34.8477 55.543C34.5378 56.1263 34.3828 56.737 34.3828 57.375ZM44.2266 56.9648C44.2266 56.6185 44.2721 56.3177 44.3633 56.0625C44.4727 55.8073 44.737 55.6797 45.1562 55.6797C45.1927 55.6797 45.2747 55.6888 45.4023 55.707C45.5482 55.707 45.6484 55.7161 45.7031 55.7344C45.6849 56.5911 45.8216 57.2383 46.1133 57.6758C46.4049 58.0951 46.9518 58.3047 47.7539 58.3047C48.4102 58.3047 49.0573 58.2044 49.6953 58.0039C50.3333 57.8034 50.9076 57.5117 51.418 57.1289C51.9466 56.7279 52.3659 56.2448 52.6758 55.6797C53.0039 55.1146 53.168 54.4766 53.168 53.7656C53.168 53.3281 53.013 53.0182 52.7031 52.8359C52.4115 52.6536 52.0833 52.5078 51.7188 52.3984C51.3542 52.2891 51.0169 52.1706 50.707 52.043C50.4154 51.8971 50.2695 51.651 50.2695 51.3047C50.2695 50.8854 50.5247 50.4844 51.0352 50.1016C51.5456 49.7188 52.1471 49.3815 52.8398 49.0898C53.5326 48.7799 54.2161 48.543 54.8906 48.3789C55.5833 48.1966 56.112 48.1055 56.4766 48.1055C56.4766 48.6341 56.3581 49.0078 56.1211 49.2266C55.9023 49.4453 55.6289 49.6185 55.3008 49.7461C54.9727 49.8737 54.6354 50.0013 54.2891 50.1289C53.9609 50.2383 53.6875 50.457 53.4688 50.7852C53.7604 51.0221 53.9974 51.2409 54.1797 51.4414C54.3802 51.6237 54.5352 51.8242 54.6445 52.043C54.7539 52.2617 54.8268 52.5078 54.8633 52.7812C54.8997 53.0365 54.918 53.3464 54.918 53.7109C54.918 54.6589 54.7083 55.5247 54.2891 56.3086C53.888 57.0742 53.3594 57.7396 52.7031 58.3047C52.0469 58.8516 51.2995 59.2799 50.4609 59.5898C49.6224 59.8815 48.7656 60.0273 47.8906 60.0273C47.4167 60.0273 46.9518 59.9727 46.4961 59.8633C46.0586 59.7357 45.6667 59.5443 45.3203 59.2891C44.9922 59.0339 44.7279 58.7148 44.5273 58.332C44.3268 57.9492 44.2266 57.4935 44.2266 56.9648ZM53.9336 67.6562C53.9336 67.638 53.9427 67.6016 53.9609 67.5469C53.9609 67.4922 53.9609 67.4557 53.9609 67.4375C53.9792 67.3828 54.0065 67.3008 54.043 67.1914C54.0794 67.1003 54.1159 67 54.1523 66.8906C54.1888 66.7812 54.2253 66.6719 54.2617 66.5625C54.2982 66.4714 54.3255 66.4076 54.3438 66.3711C54.4531 66.1159 54.6354 65.7057 54.8906 65.1406C55.1458 64.5938 55.4375 63.9648 55.7656 63.2539C56.0938 62.5612 56.4401 61.832 56.8047 61.0664C57.151 60.3008 57.4883 59.5716 57.8164 58.8789C58.1445 58.168 58.4362 57.5391 58.6914 56.9922C58.9648 56.4271 59.1654 56.0078 59.293 55.7344C59.5299 55.3516 59.8581 54.9049 60.2773 54.3945C60.7148 53.8841 61.1979 53.3646 61.7266 52.8359C62.2552 52.3073 62.8203 51.7969 63.4219 51.3047C64.0417 50.7943 64.6432 50.3477 65.2266 49.9648C65.8281 49.5638 66.4115 49.2448 66.9766 49.0078C67.5417 48.7526 68.043 48.625 68.4805 48.625C69.1367 48.625 69.6016 48.7435 69.875 48.9805C70.1484 49.2174 70.2852 49.7005 70.2852 50.4297C70.2852 51.2135 70.1302 51.9974 69.8203 52.7812C69.5286 53.5469 69.1276 54.276 68.6172 54.9688C68.1068 55.6615 67.5052 56.2904 66.8125 56.8555C66.138 57.4206 65.418 57.8854 64.6523 58.25C63.9049 58.6146 63.1302 58.8698 62.3281 59.0156C61.526 59.1432 60.7513 59.1159 60.0039 58.9336L59.6484 59.2891L56.0938 68.1484C56.0391 68.3125 55.8841 68.4128 55.6289 68.4492C55.3737 68.5039 55.1641 68.5312 55 68.5312C54.763 68.5312 54.526 68.4492 54.2891 68.2852C54.0521 68.1393 53.9336 67.9297 53.9336 67.6562ZM66.7305 54.3398C67.5872 53.4284 68.1432 52.7083 68.3984 52.1797C68.6536 51.6328 68.7083 51.25 68.5625 51.0312C68.4167 50.8125 68.125 50.7305 67.6875 50.7852C67.25 50.8398 66.7578 50.9948 66.2109 51.25C65.6641 51.5052 65.1081 51.8424 64.543 52.2617C63.9961 52.681 63.5404 53.1367 63.1758 53.6289C63.0117 53.8112 62.8112 54.0573 62.5742 54.3672C62.3372 54.6589 62.1003 54.9596 61.8633 55.2695C61.6445 55.5612 61.4531 55.8255 61.2891 56.0625C61.125 56.2995 61.043 56.4362 61.043 56.4727V57.0469C62.3008 57.0469 63.3763 56.8646 64.2695 56.5C65.1628 56.1172 65.9831 55.3971 66.7305 54.3398ZM71.4336 58.5781C71.1237 57.8854 70.987 57.2109 71.0234 56.5547C71.0599 55.8802 71.2057 55.2513 71.4609 54.668C71.7344 54.0664 72.0807 53.5286 72.5 53.0547C72.9375 52.5625 73.4023 52.1432 73.8945 51.7969C74.3867 51.4323 74.8789 51.1589 75.3711 50.9766C75.8815 50.7943 76.3281 50.7214 76.7109 50.7578C77.0938 50.776 77.3945 50.9128 77.6133 51.168C77.832 51.4232 77.9049 51.8151 77.832 52.3438C77.832 53.0547 77.6042 53.6745 77.1484 54.2031C76.7109 54.7318 76.2188 55.2057 75.6719 55.625C75.1432 56.0443 74.651 56.4271 74.1953 56.7734C73.7578 57.1016 73.5391 57.4115 73.5391 57.7031C73.5391 57.8672 73.6302 57.9948 73.8125 58.0859C74.013 58.1771 74.2409 58.25 74.4961 58.3047C74.7513 58.3411 75.0065 58.3685 75.2617 58.3867C75.5169 58.4049 75.6992 58.4232 75.8086 58.4414C77.5221 58.0768 78.8073 57.8581 79.6641 57.7852C80.5208 57.694 81.0586 57.7031 81.2773 57.8125C81.4961 57.9036 81.4505 58.0586 81.1406 58.2773C80.849 58.4779 80.3932 58.6966 79.7734 58.9336C79.1536 59.1523 78.4336 59.3529 77.6133 59.5352C76.793 59.7174 75.9818 59.8268 75.1797 59.8633C74.3776 59.8815 73.6302 59.7995 72.9375 59.6172C72.263 59.4349 71.7617 59.0885 71.4336 58.5781ZM76.2188 52.3438C75.8542 52.3438 75.5078 52.444 75.1797 52.6445C74.8516 52.8451 74.5508 53.1003 74.2773 53.4102C74.0221 53.7018 73.8034 54.0299 73.6211 54.3945C73.4388 54.7409 73.3021 55.069 73.2109 55.3789C73.2474 55.3971 73.2747 55.4062 73.293 55.4062H73.375C73.6302 55.4062 73.9219 55.2969 74.25 55.0781C74.5781 54.8594 74.888 54.5951 75.1797 54.2852C75.4714 53.957 75.7174 53.6198 75.918 53.2734C76.1185 52.9271 76.2188 52.6172 76.2188 52.3438ZM86.7188 57.8945C86.7188 57.3477 86.8281 56.8464 87.0469 56.3906C87.2839 55.9167 87.5391 55.4701 87.8125 55.0508C88.0859 54.6315 88.332 54.2122 88.5508 53.793C88.7878 53.3737 88.9062 52.9271 88.9062 52.4531C88.9062 52.3438 88.8971 52.2161 88.8789 52.0703C88.8789 51.9062 88.8607 51.7513 88.8242 51.6055C88.806 51.4596 88.7513 51.3411 88.6602 51.25C88.5872 51.1406 88.487 51.0859 88.3594 51.0859C88.3411 51.0859 88.3047 51.0951 88.25 51.1133C88.2135 51.1133 88.1953 51.1224 88.1953 51.1406C87.9401 51.487 87.6302 51.8789 87.2656 52.3164C86.9193 52.7357 86.5456 53.1549 86.1445 53.5742C85.7435 53.9935 85.3516 54.3945 84.9688 54.7773C84.5859 55.1602 84.2396 55.4792 83.9297 55.7344C83.7109 55.9349 83.4102 56.2083 83.0273 56.5547C82.6628 56.901 82.2891 57.2474 81.9062 57.5938C81.5417 57.9219 81.2135 58.2135 80.9219 58.4688C80.6484 58.724 80.4935 58.8516 80.457 58.8516L79.1992 57.7852C79.3633 57.7852 79.5273 57.7487 79.6914 57.6758C79.8372 57.6029 79.9831 57.5208 80.1289 57.4297C81.2227 56.7005 82.207 55.862 83.082 54.9141C83.9753 53.9661 84.8503 52.9453 85.707 51.8516C85.7435 51.7969 85.8346 51.6419 85.9805 51.3867C86.1445 51.1133 86.3177 50.8125 86.5 50.4844C86.6823 50.138 86.8646 49.8008 87.0469 49.4727C87.2292 49.1263 87.3659 48.8529 87.457 48.6523C87.5664 48.4154 87.6302 48.224 87.6484 48.0781C87.6849 47.9323 87.7122 47.8229 87.7305 47.75C87.7669 47.6589 87.8216 47.5951 87.8945 47.5586C87.9674 47.5221 88.1224 47.5039 88.3594 47.5039C88.3958 47.5039 88.4779 47.513 88.6055 47.5312C88.7513 47.5495 88.8424 47.5677 88.8789 47.5859C89.1159 48.0781 89.3255 48.5156 89.5078 48.8984C89.6901 49.2812 89.8451 49.6458 89.9727 49.9922C90.1003 50.3203 90.1914 50.6576 90.2461 51.0039C90.319 51.3503 90.3555 51.7331 90.3555 52.1523C90.1185 52.7539 89.8542 53.3737 89.5625 54.0117C89.2708 54.6315 89.0247 55.224 88.8242 55.7891C88.6237 56.3542 88.4961 56.8646 88.4414 57.3203C88.4049 57.776 88.5052 58.1406 88.7422 58.4141C88.9974 58.6693 89.4167 58.806 90 58.8242C90.6016 58.8424 91.4492 58.6875 92.543 58.3594C92.8346 58.5052 92.862 58.6875 92.625 58.9062C92.388 59.1068 92.0234 59.2982 91.5312 59.4805C91.0573 59.6628 90.5286 59.8177 89.9453 59.9453C89.3802 60.0547 88.9062 60.082 88.5234 60.0273C88.1771 60.0273 87.8854 59.9727 87.6484 59.8633C87.4297 59.7357 87.2474 59.5716 87.1016 59.3711C86.974 59.1706 86.8737 58.9427 86.8008 58.6875C86.7461 58.4323 86.7188 58.168 86.7188 57.8945Z" fill="white"/>
</svg>
