<svg width="112" height="64" viewBox="0 0 112 64" fill="none" xmlns="http://www.w3.org/2000/svg">
<rect width="112" height="64" rx="32" fill="#0D3543"/>
<path d="M42.14 25.04H47.46L43.148 41H35.84L31.5 25.04H36.848L39.424 37.528H39.564L42.14 25.04ZM51.1088 26.524C50.4741 26.524 49.9234 26.3093 49.4568 25.88C49.0088 25.4507 48.7848 24.9373 48.7848 24.34C48.7848 23.7427 49.0088 23.2293 49.4568 22.8C49.9234 22.3707 50.4741 22.156 51.1088 22.156C51.7434 22.156 52.2848 22.3707 52.7328 22.8C53.1808 23.2293 53.4048 23.7427 53.4048 24.34C53.4048 24.9373 53.1808 25.4507 52.7328 25.88C52.2848 26.3093 51.7434 26.524 51.1088 26.524ZM48.7008 28.12H53.4888V41H48.7008V28.12ZM61.7988 35.708C61.7988 36.044 61.8082 36.3987 61.8268 36.772C61.8455 37.1267 61.9015 37.3507 61.9948 37.444C62.1255 37.5747 62.5828 37.64 63.3668 37.64L64.3188 37.612C64.4868 38.508 64.5708 39.544 64.5708 40.72C64.2162 40.8507 63.6935 40.972 63.0028 41.084C62.3308 41.196 61.6868 41.252 61.0708 41.252C59.7828 41.252 58.7842 40.972 58.0748 40.412C57.3842 39.8333 57.0388 38.9467 57.0388 37.752V30.864H54.9388V28.316L57.0388 28.12L58.2988 25.04L61.7988 24.844V28.12H64.7668V30.864H61.7988V35.708ZM72.4148 41.364C70.1748 41.364 68.4948 40.8413 67.3748 39.796C66.2734 38.732 65.7228 37.0613 65.7228 34.784C65.7228 33.5333 65.8348 32.4413 66.0588 31.508C66.3014 30.556 66.5908 29.8933 66.9268 29.52C67.3561 29.0347 68.1401 28.6333 69.2788 28.316C70.4361 27.9987 71.5188 27.84 72.5268 27.84C74.9348 27.84 76.6521 28.3533 77.6788 29.38C78.7054 30.4067 79.2188 32.0493 79.2188 34.308C79.2188 36.7347 78.6681 38.5173 77.5668 39.656C76.4654 40.7947 74.7481 41.364 72.4148 41.364ZM72.4988 38.088C73.2268 38.088 73.7028 37.836 73.9268 37.332C74.1508 36.8093 74.2628 35.8947 74.2628 34.588C74.2628 33.6733 74.2161 32.9733 74.1228 32.488C74.0294 31.984 73.8521 31.62 73.5908 31.396C73.3481 31.1533 72.9654 31.032 72.4428 31.032C71.6961 31.032 71.2668 31.0973 71.1548 31.228C71.0054 31.3587 70.8841 31.7693 70.7908 32.46C70.6974 33.1507 70.6508 33.8693 70.6508 34.616C70.6508 35.8853 70.7721 36.7813 71.0148 37.304C71.2761 37.8267 71.7708 38.088 72.4988 38.088Z" fill="white"/>
</svg>
