<svg width="121" height="76" viewBox="0 0 121 76" fill="none" xmlns="http://www.w3.org/2000/svg">
<path d="M20.16 33.052C22.336 33.308 23.888 34.044 24.816 35.26C25.744 36.444 26.208 37.884 26.208 39.58C26.208 40.636 26.048 41.644 25.728 42.604C25.408 43.532 25.024 44.332 24.576 45.004C24.128 45.644 23.744 46.06 23.424 46.252C22.144 47.084 18.24 47.5 11.712 47.5H2.4V20.14H13.68C16.24 20.14 18.304 20.284 19.872 20.572C21.472 20.828 22.768 21.436 23.76 22.396C24.752 23.324 25.248 24.748 25.248 26.668C25.248 28.332 24.832 29.676 24 30.7C23.2 31.724 21.92 32.428 20.16 32.812V33.052ZM16.32 25.948C16 25.628 15.616 25.436 15.168 25.372C14.752 25.276 14.08 25.228 13.152 25.228C12.224 25.228 11.52 25.244 11.04 25.276V31.132H11.52C11.68 31.132 12.352 31.132 13.536 31.132C14.72 31.132 15.504 31.052 15.888 30.892C16.176 30.764 16.432 30.428 16.656 29.884C16.912 29.34 17.04 28.748 17.04 28.108C17.04 27.148 16.8 26.428 16.32 25.948ZM17.136 41.98C17.36 41.788 17.536 41.436 17.664 40.924C17.824 40.38 17.904 39.836 17.904 39.292C17.904 38.62 17.808 37.996 17.616 37.42C17.456 36.812 17.232 36.38 16.944 36.124C16.656 35.836 16.24 35.644 15.696 35.548C15.184 35.452 14.304 35.404 13.056 35.404C12.256 35.404 11.584 35.42 11.04 35.452V42.412C12.544 42.444 13.888 42.428 15.072 42.364C16.256 42.268 16.944 42.14 17.136 41.98ZM43.0699 24.94C43.4859 24.94 43.9179 24.988 44.3659 25.084C44.8459 25.18 45.1979 25.292 45.4219 25.42C45.4219 26.124 45.3419 27.292 45.1819 28.924C45.0219 30.524 44.8779 31.66 44.7499 32.332C44.4299 32.3 43.8379 32.284 42.9739 32.284C40.9579 32.284 39.1659 32.396 37.5979 32.62V47.5H29.3899V25.42H36.2539L37.2139 28.972H37.2619C38.1899 27.756 39.1819 26.78 40.2379 26.044C41.2939 25.308 42.2379 24.94 43.0699 24.94ZM58.2334 48.124C54.3934 48.124 51.5134 47.228 49.5934 45.436C47.7054 43.612 46.7614 40.748 46.7614 36.844C46.7614 34.7 46.9534 32.828 47.3374 31.228C47.7534 29.596 48.2494 28.46 48.8254 27.82C49.5614 26.988 50.9054 26.3 52.8574 25.756C54.8414 25.212 56.6974 24.94 58.4254 24.94C62.5534 24.94 65.4974 25.82 67.2574 27.58C69.0174 29.34 69.8974 32.156 69.8974 36.028C69.8974 40.188 68.9534 43.244 67.0654 45.196C65.1774 47.148 62.2334 48.124 58.2334 48.124ZM58.3774 42.508C59.6254 42.508 60.4414 42.076 60.8254 41.212C61.2094 40.316 61.4014 38.748 61.4014 36.508C61.4014 34.94 61.3214 33.74 61.1614 32.908C61.0014 32.044 60.6974 31.42 60.2494 31.036C59.8334 30.62 59.1774 30.412 58.2814 30.412C57.0014 30.412 56.2654 30.524 56.0734 30.748C55.8174 30.972 55.6094 31.676 55.4494 32.86C55.2894 34.044 55.2094 35.276 55.2094 36.556C55.2094 38.732 55.4174 40.268 55.8334 41.164C56.2814 42.06 57.1294 42.508 58.3774 42.508ZM83.6865 48.124C79.8465 48.124 76.9665 47.228 75.0465 45.436C73.1585 43.612 72.2145 40.748 72.2145 36.844C72.2145 34.7 72.4065 32.828 72.7905 31.228C73.2065 29.596 73.7025 28.46 74.2785 27.82C75.0145 26.988 76.3585 26.3 78.3105 25.756C80.2945 25.212 82.1505 24.94 83.8785 24.94C88.0065 24.94 90.9505 25.82 92.7105 27.58C94.4705 29.34 95.3505 32.156 95.3505 36.028C95.3505 40.188 94.4065 43.244 92.5185 45.196C90.6305 47.148 87.6865 48.124 83.6865 48.124ZM83.8305 42.508C85.0785 42.508 85.8945 42.076 86.2785 41.212C86.6625 40.316 86.8545 38.748 86.8545 36.508C86.8545 34.94 86.7745 33.74 86.6145 32.908C86.4545 32.044 86.1505 31.42 85.7025 31.036C85.2865 30.62 84.6305 30.412 83.7345 30.412C82.4545 30.412 81.7185 30.524 81.5265 30.748C81.2705 30.972 81.0625 31.676 80.9025 32.86C80.7425 34.044 80.6625 35.276 80.6625 36.556C80.6625 38.732 80.8705 40.268 81.2865 41.164C81.7345 42.06 82.5825 42.508 83.8305 42.508ZM101.25 36.22L95.73 25.42H103.698L107.682 33.964L111.714 25.42H119.634L114.162 36.22L120.162 47.5H112.146L107.682 38.38L103.218 47.5H95.202L101.25 36.22Z" fill="#0D3543"/>
</svg>
