<svg width="112" height="112" viewBox="0 0 112 112" fill="none" xmlns="http://www.w3.org/2000/svg">
<rect width="112" height="112" rx="56" fill="#0D3543"/>
<path d="M24.8281 57.5117C24.8281 57.4023 24.8281 57.2656 24.8281 57.1016C24.8281 56.9375 24.8464 56.7826 24.8828 56.6367C24.9193 56.4727 24.974 56.3359 25.0469 56.2266C25.1198 56.1172 25.2292 56.0625 25.375 56.0625C25.5208 56.0625 25.6758 56.1992 25.8398 56.4727C26.0221 56.7279 26.25 57.0195 26.5234 57.3477C26.7969 57.6576 27.1341 57.9492 27.5352 58.2227C27.9544 58.4779 28.474 58.6055 29.0938 58.6055C29.5677 58.6055 30.1328 58.5326 30.7891 58.3867C31.4453 58.2409 32.1198 58.0404 32.8125 57.7852C33.5234 57.5117 34.2161 57.1927 34.8906 56.8281C35.5833 56.4453 36.2031 56.0352 36.75 55.5977C37.2969 55.1419 37.7344 54.668 38.0625 54.1758C38.4089 53.6654 38.582 53.1367 38.582 52.5898C37.9258 52.5898 37.2969 52.6628 36.6953 52.8086C36.0938 52.9544 35.4284 53.0273 34.6992 53.0273C34.6992 52.8633 34.7266 52.7083 34.7812 52.5625C34.8359 52.3984 34.9544 52.2799 35.1367 52.207L40.0859 50.1016L40.8242 49.3633C40.8971 49.181 41.0339 48.8711 41.2344 48.4336C41.4349 47.9961 41.6445 47.5404 41.8633 47.0664C42.1003 46.5742 42.319 46.1094 42.5195 45.6719C42.7201 45.2344 42.8659 44.9336 42.957 44.7695C42.957 44.7513 42.9935 44.6875 43.0664 44.5781C43.1393 44.4688 43.2122 44.3594 43.2852 44.25C43.3763 44.1224 43.4492 44.013 43.5039 43.9219C43.5768 43.8125 43.6224 43.7396 43.6406 43.7031C43.6406 43.5573 43.6315 43.4297 43.6133 43.3203C43.5951 43.2109 43.4857 43.0924 43.2852 42.9648C41.5534 43.6029 39.8854 44.1953 38.2812 44.7422C36.6771 45.2708 35.0456 45.8633 33.3867 46.5195C33.3685 46.5195 33.332 46.5286 33.2773 46.5469C33.2409 46.5469 33.2044 46.5469 33.168 46.5469C33.0221 46.5469 32.8945 46.4922 32.7852 46.3828C32.694 46.2734 32.6484 46.1458 32.6484 46C32.6484 45.8177 32.9492 45.5443 33.5508 45.1797C34.1706 44.7969 34.9453 44.3958 35.875 43.9766C36.8047 43.5391 37.8255 43.0924 38.9375 42.6367C40.0677 42.181 41.1432 41.7708 42.1641 41.4062C43.1849 41.0234 44.0872 40.7135 44.8711 40.4766C45.6549 40.2396 46.1836 40.1211 46.457 40.1211C46.8398 40.1211 47.1771 40.2122 47.4688 40.3945C47.7604 40.5768 47.9062 40.9049 47.9062 41.3789C47.9062 41.5247 47.8607 41.6432 47.7695 41.7344C47.6966 41.8255 47.5964 41.9076 47.4688 41.9805C47.3594 42.0352 47.2409 42.0898 47.1133 42.1445C47.0039 42.181 46.9128 42.2266 46.8398 42.2812C46.7305 42.3724 46.5846 42.5091 46.4023 42.6914C46.2201 42.8737 46.0286 43.056 45.8281 43.2383C45.6458 43.4206 45.4818 43.5938 45.3359 43.7578C45.1901 43.9036 45.1081 43.9948 45.0898 44.0312C44.9258 44.3047 44.7161 44.6875 44.4609 45.1797C44.224 45.6536 43.9961 46.1367 43.7773 46.6289C43.5586 47.1211 43.3672 47.5677 43.2031 47.9688C43.0391 48.3516 42.957 48.5794 42.957 48.6523V49.1719C43.0299 49.1719 43.1576 49.1536 43.3398 49.1172C43.5404 49.0625 43.7409 49.026 43.9414 49.0078C44.1419 48.9896 44.3151 49.0169 44.4609 49.0898C44.625 49.1628 44.707 49.3177 44.707 49.5547C44.707 49.7734 44.5885 49.9557 44.3516 50.1016C44.2604 50.138 44.0964 50.2109 43.8594 50.3203C43.6406 50.4115 43.3945 50.5117 43.1211 50.6211C42.8659 50.7305 42.6198 50.8398 42.3828 50.9492C42.1458 51.0404 41.9818 51.1042 41.8906 51.1406C41.0885 52.4531 40.2409 53.6562 39.3477 54.75C38.4727 55.8438 37.4974 56.7826 36.4219 57.5664C35.3646 58.332 34.1797 58.9336 32.8672 59.3711C31.5729 59.8086 30.1237 60.0273 28.5195 60.0273C28.1732 60.0273 27.7812 59.9818 27.3438 59.8906C26.9245 59.7995 26.5234 59.6536 26.1406 59.4531C25.776 59.2344 25.4661 58.9701 25.2109 58.6602C24.9557 58.332 24.8281 57.9492 24.8281 57.5117ZM43.8594 58.2227C43.8594 57.9674 43.8867 57.7487 43.9414 57.5664C43.9961 57.3659 44.0964 57.1107 44.2422 56.8008C44.3698 56.6185 44.5977 56.2721 44.9258 55.7617C45.2721 55.2513 45.6276 54.7135 45.9922 54.1484C46.375 53.5833 46.7305 53.0547 47.0586 52.5625C47.4049 52.0521 47.6419 51.6966 47.7695 51.4961C47.9336 51.2591 48.0612 51.1315 48.1523 51.1133C48.2435 51.0951 48.4167 51.0859 48.6719 51.0859C48.8359 51.0859 49.0091 51.0951 49.1914 51.1133C49.3919 51.1315 49.5195 51.2591 49.5742 51.4961C49.319 52.1159 48.9727 52.7083 48.5352 53.2734C48.1159 53.8203 47.6966 54.3672 47.2773 54.9141C46.8763 55.4609 46.5208 56.026 46.2109 56.6094C45.901 57.1745 45.7461 57.7852 45.7461 58.4414C45.819 58.4414 45.9284 58.4505 46.0742 58.4688C46.2383 58.487 46.4115 58.5052 46.5938 58.5234C46.776 58.5417 46.9401 58.5599 47.0859 58.5781C47.25 58.5964 47.3685 58.5964 47.4414 58.5781C47.5508 58.5599 47.7331 58.5234 47.9883 58.4688C48.2617 58.3958 48.5443 58.3229 48.8359 58.25C49.1458 58.1771 49.4375 58.1042 49.7109 58.0312C49.9844 57.9583 50.1758 57.9036 50.2852 57.8672C50.2852 57.9036 50.2852 57.9674 50.2852 58.0586C50.3034 58.1315 50.3125 58.1862 50.3125 58.2227C50.3125 58.5872 50.1393 58.888 49.793 59.125C49.4648 59.362 49.0729 59.5534 48.6172 59.6992C48.1797 59.8268 47.724 59.918 47.25 59.9727C46.7943 60.0091 46.4388 60.0273 46.1836 60.0273C45.9102 60.0273 45.6276 60 45.3359 59.9453C45.0625 59.8724 44.8164 59.763 44.5977 59.6172C44.3789 59.4714 44.1966 59.2891 44.0508 59.0703C43.9232 58.8333 43.8594 58.5508 43.8594 58.2227ZM51.8164 42.1992C52.0534 42.1992 52.2721 42.2083 52.4727 42.2266C52.6732 42.2448 52.8464 42.2904 52.9922 42.3633C53.138 42.4362 53.2565 42.5456 53.3477 42.6914C53.4388 42.8372 53.4844 43.0378 53.4844 43.293C53.4844 43.4023 53.4844 43.5208 53.4844 43.6484C53.4844 43.776 53.4661 43.9036 53.4297 44.0312C53.4115 44.1406 53.3659 44.2409 53.293 44.332C53.2201 44.4049 53.1016 44.4414 52.9375 44.4414C52.6823 44.4414 52.4727 44.3503 52.3086 44.168C52.1628 43.9857 52.0534 43.776 51.9805 43.5391C51.9076 43.2839 51.862 43.0286 51.8438 42.7734C51.8255 42.5182 51.8164 42.3268 51.8164 42.1992ZM50.3672 57.5117C50.3672 57.3841 50.3763 57.1927 50.3945 56.9375C50.431 56.6641 50.4674 56.3997 50.5039 56.1445C50.5404 55.8893 50.5768 55.6615 50.6133 55.4609C50.6497 55.2422 50.6862 55.1055 50.7227 55.0508L55.6992 45.0977C55.7721 44.9518 55.9089 44.7513 56.1094 44.4961C56.3281 44.2227 56.556 43.9492 56.793 43.6758C57.0482 43.3841 57.2943 43.1198 57.5312 42.8828C57.7865 42.6276 57.9961 42.4271 58.1602 42.2812C58.2878 42.3177 58.3789 42.3815 58.4336 42.4727C58.4883 42.5638 58.5247 42.6732 58.543 42.8008C58.5612 42.9102 58.5612 43.0195 58.543 43.1289C58.543 43.2383 58.543 43.3294 58.543 43.4023C58.543 43.4935 58.543 43.6211 58.543 43.7852C58.543 43.9492 58.5339 44.0312 58.5156 44.0312C58.3333 44.5234 58.0508 45.1068 57.668 45.7812C57.2852 46.4557 56.8568 47.1758 56.3828 47.9414C55.9089 48.707 55.4167 49.5091 54.9062 50.3477C54.4141 51.168 53.9583 51.9883 53.5391 52.8086C53.138 53.6107 52.8008 54.3854 52.5273 55.1328C52.2721 55.8802 52.1445 56.5638 52.1445 57.1836C52.1445 57.5117 52.2357 57.776 52.418 57.9766C52.6185 58.1589 52.8281 58.3229 53.0469 58.4688C53.2656 58.6146 53.4661 58.7604 53.6484 58.9062C53.849 59.0521 53.9492 59.2526 53.9492 59.5078C53.9492 59.6719 53.8763 59.7995 53.7305 59.8906C53.5846 59.9635 53.4115 60 53.2109 60C52.4453 60 51.7799 59.7904 51.2148 59.3711C50.6497 58.9336 50.3672 58.3138 50.3672 57.5117ZM57.6133 58.5781C57.3034 57.8854 57.1667 57.2109 57.2031 56.5547C57.2396 55.8802 57.3854 55.2513 57.6406 54.668C57.9141 54.0664 58.2604 53.5286 58.6797 53.0547C59.1172 52.5625 59.582 52.1432 60.0742 51.7969C60.5664 51.4323 61.0586 51.1589 61.5508 50.9766C62.0612 50.7943 62.5078 50.7214 62.8906 50.7578C63.2734 50.776 63.5742 50.9128 63.793 51.168C64.0117 51.4232 64.0846 51.8151 64.0117 52.3438C64.0117 53.0547 63.7839 53.6745 63.3281 54.2031C62.8906 54.7318 62.3984 55.2057 61.8516 55.625C61.3229 56.0443 60.8307 56.4271 60.375 56.7734C59.9375 57.1016 59.7188 57.4115 59.7188 57.7031C59.7188 57.8672 59.8099 57.9948 59.9922 58.0859C60.1927 58.1771 60.4206 58.25 60.6758 58.3047C60.931 58.3411 61.1862 58.3685 61.4414 58.3867C61.6966 58.4049 61.8789 58.4232 61.9883 58.4414C63.7018 58.0768 64.987 57.8581 65.8438 57.7852C66.7005 57.694 67.2383 57.7031 67.457 57.8125C67.6758 57.9036 67.6302 58.0586 67.3203 58.2773C67.0286 58.4779 66.5729 58.6966 65.9531 58.9336C65.3333 59.1523 64.6133 59.3529 63.793 59.5352C62.9727 59.7174 62.1615 59.8268 61.3594 59.8633C60.5573 59.8815 59.8099 59.7995 59.1172 59.6172C58.4427 59.4349 57.9414 59.0885 57.6133 58.5781ZM62.3984 52.3438C62.0339 52.3438 61.6875 52.444 61.3594 52.6445C61.0312 52.8451 60.7305 53.1003 60.457 53.4102C60.2018 53.7018 59.9831 54.0299 59.8008 54.3945C59.6185 54.7409 59.4818 55.069 59.3906 55.3789C59.4271 55.3971 59.4544 55.4062 59.4727 55.4062H59.5547C59.8099 55.4062 60.1016 55.2969 60.4297 55.0781C60.7578 54.8594 61.0677 54.5951 61.3594 54.2852C61.651 53.957 61.8971 53.6198 62.0977 53.2734C62.2982 52.9271 62.3984 52.6172 62.3984 52.3438ZM73.7188 46.7109C73.7188 46.9844 73.6823 47.2669 73.6094 47.5586C73.5547 47.8503 73.4453 48.1237 73.2812 48.3789C73.1172 48.6341 72.8984 48.8438 72.625 49.0078C72.3516 49.1719 72.0052 49.2539 71.5859 49.2539C71.5859 48.9987 71.6133 48.7708 71.668 48.5703C71.7227 48.3516 71.7865 48.1419 71.8594 47.9414C71.9323 47.7227 71.9961 47.5039 72.0508 47.2852C72.1055 47.0482 72.1328 46.793 72.1328 46.5195C72.1328 45.9727 72.0417 45.5443 71.8594 45.2344C71.6771 44.9062 71.4766 44.651 71.2578 44.4688C71.0573 44.2682 70.8659 44.1133 70.6836 44.0039C70.5013 43.8945 70.4102 43.7669 70.4102 43.6211C70.4102 43.457 70.4557 43.3021 70.5469 43.1562C70.6562 43.0104 70.8385 42.9375 71.0938 42.9375C71.5859 42.9375 71.9961 43.0833 72.3242 43.375C72.6706 43.6484 72.944 43.9857 73.1445 44.3867C73.3451 44.7878 73.4909 45.207 73.582 45.6445C73.6732 46.0638 73.7188 46.4193 73.7188 46.7109ZM74.5938 56.9648C74.5938 56.6185 74.6393 56.3177 74.7305 56.0625C74.8398 55.8073 75.1042 55.6797 75.5234 55.6797C75.5599 55.6797 75.6419 55.6888 75.7695 55.707C75.9154 55.707 76.0156 55.7161 76.0703 55.7344C76.0521 56.5911 76.1888 57.2383 76.4805 57.6758C76.7721 58.0951 77.319 58.3047 78.1211 58.3047C78.7773 58.3047 79.4245 58.2044 80.0625 58.0039C80.7005 57.8034 81.2747 57.5117 81.7852 57.1289C82.3138 56.7279 82.7331 56.2448 83.043 55.6797C83.3711 55.1146 83.5352 54.4766 83.5352 53.7656C83.5352 53.3281 83.3802 53.0182 83.0703 52.8359C82.7786 52.6536 82.4505 52.5078 82.0859 52.3984C81.7214 52.2891 81.3841 52.1706 81.0742 52.043C80.7826 51.8971 80.6367 51.651 80.6367 51.3047C80.6367 50.8854 80.8919 50.4844 81.4023 50.1016C81.9128 49.7188 82.5143 49.3815 83.207 49.0898C83.8997 48.7799 84.5833 48.543 85.2578 48.3789C85.9505 48.1966 86.4792 48.1055 86.8438 48.1055C86.8438 48.6341 86.7253 49.0078 86.4883 49.2266C86.2695 49.4453 85.9961 49.6185 85.668 49.7461C85.3398 49.8737 85.0026 50.0013 84.6562 50.1289C84.3281 50.2383 84.0547 50.457 83.8359 50.7852C84.1276 51.0221 84.3646 51.2409 84.5469 51.4414C84.7474 51.6237 84.9023 51.8242 85.0117 52.043C85.1211 52.2617 85.194 52.5078 85.2305 52.7812C85.2669 53.0365 85.2852 53.3464 85.2852 53.7109C85.2852 54.6589 85.0755 55.5247 84.6562 56.3086C84.2552 57.0742 83.7266 57.7396 83.0703 58.3047C82.4141 58.8516 81.6667 59.2799 80.8281 59.5898C79.9896 59.8815 79.1328 60.0273 78.2578 60.0273C77.7839 60.0273 77.319 59.9727 76.8633 59.8633C76.4258 59.7357 76.0339 59.5443 75.6875 59.2891C75.3594 59.0339 75.0951 58.7148 74.8945 58.332C74.694 57.9492 74.5938 57.4935 74.5938 56.9648Z" fill="white"/>
</svg>
