<svg width="93" height="76" viewBox="0 0 93 76" fill="none" xmlns="http://www.w3.org/2000/svg">
<path d="M15.072 20.14V37.66C15.072 40.092 14.848 42.06 14.4 43.564C13.952 45.068 13.152 46.204 12 46.972C10.88 47.74 9.296 48.124 7.248 48.124C5.072 48.124 2.784 47.916 0.384 47.5L1.104 41.98C2 42.012 3.024 41.996 4.176 41.932C5.328 41.868 5.984 41.74 6.144 41.548C6.336 41.228 6.432 40.46 6.432 39.244C6.432 38.028 6.432 37.34 6.432 37.18V20.14H15.072ZM32.5106 47.5L31.7426 44.476C30.2706 46.876 28.2226 48.076 25.5986 48.076C23.4546 48.076 21.6946 47.484 20.3186 46.3C18.9746 45.084 18.3026 43.388 18.3026 41.212C18.3026 39.868 18.6866 38.7 19.4546 37.708C20.2546 36.684 21.3426 35.964 22.7186 35.548C24.5106 35.036 27.2786 34.748 31.0226 34.684C31.0226 32.572 30.9266 31.452 30.7346 31.324C30.5746 31.196 30.0626 31.132 29.1986 31.132C28.6546 31.132 27.9026 31.164 26.9426 31.228C25.4066 31.292 23.3266 31.468 20.7026 31.756C20.4466 30.028 20.2546 28.172 20.1266 26.188C21.8226 25.836 23.5986 25.548 25.4546 25.324C27.3106 25.068 28.9746 24.94 30.4466 24.94C33.0066 24.94 34.9266 25.372 36.2066 26.236C37.4866 27.068 38.3186 28.172 38.7026 29.548C39.0866 30.924 39.2626 32.668 39.2306 34.78L39.1826 41.836L39.3266 47.5H32.5106ZM28.3826 42.7C29.2146 42.7 30.0946 42.54 31.0226 42.22V38.668H30.6386C28.2706 38.668 26.9586 38.796 26.7026 39.052C26.5426 39.212 26.4146 39.452 26.3186 39.772C26.2546 40.092 26.2226 40.396 26.2226 40.684C26.2226 41.452 26.3986 41.98 26.7506 42.268C27.1026 42.556 27.6466 42.7 28.3826 42.7ZM64.9208 18.364V47.5H58.1528L57.4808 43.804C56.8408 45.052 55.8968 46.044 54.6488 46.78C53.4008 47.516 51.9928 47.884 50.4248 47.884C47.9288 47.884 45.9288 46.988 44.4248 45.196C42.9528 43.404 42.2168 40.716 42.2168 37.132C42.2168 34.412 42.5368 32.172 43.1768 30.412C43.8168 28.652 44.5688 27.388 45.4328 26.62C45.9768 26.14 47.0808 25.74 48.7448 25.42C50.4408 25.1 51.9448 24.94 53.2568 24.94C54.4088 24.94 55.5928 25.052 56.8088 25.276C56.7128 23.74 56.6648 22.892 56.6648 22.732V18.7L64.9208 18.364ZM54.0248 41.452C54.8888 41.452 55.7848 41.308 56.7128 41.02V30.604C55.7848 30.476 54.7608 30.412 53.6407 30.412C52.6808 30.412 52.0728 30.492 51.8168 30.652C51.4648 30.908 51.1768 31.644 50.9528 32.86C50.7608 34.044 50.6648 35.292 50.6648 36.604C50.6648 38.556 50.9528 39.852 51.5288 40.492C52.1368 41.132 52.9688 41.452 54.0248 41.452ZM90.9386 25.42V47.5H84.2666L83.3546 43.804C81.0506 46.588 78.2986 47.98 75.0986 47.98C73.9466 47.98 72.8586 47.82 71.8346 47.5C70.8426 47.18 70.0906 46.716 69.5786 46.108C69.2906 45.756 69.0666 44.876 68.9066 43.468C68.7786 42.06 68.7146 39.916 68.7146 37.036V25.42H76.9226V36.94C76.9226 37.58 76.9386 38.332 76.9706 39.196C77.0026 40.06 77.0986 40.604 77.2586 40.828C77.4826 41.148 78.1226 41.308 79.1786 41.308L79.9466 41.26C80.8426 41.228 81.7706 41.02 82.7306 40.636V25.42H90.9386Z" fill="#0D3543"/>
</svg>
