<svg width="112" height="64" viewBox="0 0 112 64" fill="none" xmlns="http://www.w3.org/2000/svg">
<rect width="112" height="64" rx="32" fill="#0D3543"/>
<path d="M27 25.04C29.184 25.04 30.9667 25.2453 32.348 25.656C33.748 26.0667 34.8307 26.8413 35.596 27.98C36.38 29.1187 36.772 30.752 36.772 32.88C36.772 35.1573 36.3613 36.8933 35.54 38.088C34.7187 39.264 33.6173 40.048 32.236 40.44C30.8547 40.8133 29.1093 41 27 41H21.4V25.04H27ZM30.752 37.192C30.976 36.968 31.1347 36.3893 31.228 35.456C31.3213 34.5227 31.368 33.664 31.368 32.88C31.368 31.8907 31.2933 31.1067 31.144 30.528C31.0133 29.9307 30.7707 29.4547 30.416 29.1C29.856 28.484 28.8947 28.176 27.532 28.176C27.2893 28.176 26.9253 28.1947 26.44 28.232V37.528C26.7573 37.5653 27.252 37.584 27.924 37.584C28.6147 37.584 29.2213 37.556 29.744 37.5C30.2853 37.4253 30.6213 37.3227 30.752 37.192ZM51.6374 28.12V41H47.7454L47.2134 38.844C45.8694 40.468 44.264 41.28 42.3974 41.28C41.7254 41.28 41.0907 41.1867 40.4934 41C39.9147 40.8133 39.476 40.5427 39.1774 40.188C39.0094 39.9827 38.8787 39.4693 38.7854 38.648C38.7107 37.8267 38.6734 36.576 38.6734 34.896V28.12H43.4614V34.84C43.4614 35.2133 43.4707 35.652 43.4894 36.156C43.508 36.66 43.564 36.9773 43.6574 37.108C43.788 37.2947 44.1614 37.388 44.7774 37.388L45.2254 37.36C45.748 37.3413 46.2894 37.22 46.8494 36.996V28.12H51.6374ZM64.7692 40.608C63.2572 41.112 61.5678 41.364 59.7012 41.364C57.6105 41.364 56.0425 40.8413 54.9972 39.796C53.9705 38.732 53.4572 37.08 53.4572 34.84C53.4572 33.7387 53.6065 32.656 53.9052 31.592C54.2038 30.5093 54.5212 29.7813 54.8572 29.408C55.2492 28.9787 56.0145 28.6147 57.1532 28.316C58.3105 28.0173 59.5052 27.868 60.7372 27.868C62.0252 27.868 63.3225 27.98 64.6292 28.204C64.5918 28.6707 64.5265 29.2213 64.4332 29.856C64.3585 30.472 64.2745 31.0227 64.1812 31.508C63.0238 31.4333 61.9318 31.396 60.9052 31.396C59.8972 31.396 59.2532 31.452 58.9732 31.564C58.8238 31.62 58.6838 32.0027 58.5532 32.712C58.4412 33.4213 58.3852 34.084 58.3852 34.7C58.3852 35.5213 58.4972 36.156 58.7212 36.604C58.9638 37.0333 59.3372 37.332 59.8412 37.5C60.3452 37.668 61.0265 37.752 61.8852 37.752C62.2585 37.752 63.0798 37.7147 64.3492 37.64L64.7692 40.608ZM77.2106 40.608C75.6986 41.112 74.0092 41.364 72.1426 41.364C70.0519 41.364 68.4839 40.8413 67.4386 39.796C66.4119 38.732 65.8986 37.08 65.8986 34.84C65.8986 33.7387 66.0479 32.656 66.3466 31.592C66.6452 30.5093 66.9626 29.7813 67.2986 29.408C67.6906 28.9787 68.4559 28.6147 69.5946 28.316C70.7519 28.0173 71.9466 27.868 73.1786 27.868C74.4666 27.868 75.7639 27.98 77.0706 28.204C77.0332 28.6707 76.9679 29.2213 76.8746 29.856C76.7999 30.472 76.7159 31.0227 76.6226 31.508C75.4652 31.4333 74.3732 31.396 73.3466 31.396C72.3386 31.396 71.6946 31.452 71.4146 31.564C71.2652 31.62 71.1252 32.0027 70.9946 32.712C70.8826 33.4213 70.8266 34.084 70.8266 34.7C70.8266 35.5213 70.9386 36.156 71.1626 36.604C71.4052 37.0333 71.7786 37.332 72.2826 37.5C72.7866 37.668 73.4679 37.752 74.3266 37.752C74.6999 37.752 75.5212 37.7147 76.7906 37.64L77.2106 40.608ZM86.488 41L86.04 39.236C85.1813 40.636 83.9866 41.336 82.456 41.336C81.2053 41.336 80.1786 40.9907 79.376 40.3C78.592 39.5907 78.2 38.6013 78.2 37.332C78.2 36.548 78.424 35.8667 78.872 35.288C79.3386 34.6907 79.9733 34.2707 80.776 34.028C81.8213 33.7293 83.436 33.5613 85.62 33.524C85.62 32.292 85.564 31.6387 85.452 31.564C85.3586 31.4893 85.06 31.452 84.556 31.452C84.2386 31.452 83.8 31.4707 83.24 31.508C82.344 31.5453 81.1306 31.648 79.6 31.816C79.4506 30.808 79.3386 29.7253 79.264 28.568C80.2533 28.3627 81.2893 28.1947 82.372 28.064C83.4546 27.9147 84.4253 27.84 85.284 27.84C86.7773 27.84 87.8973 28.092 88.644 28.596C89.3906 29.0813 89.876 29.7253 90.1 30.528C90.324 31.3307 90.4266 32.348 90.408 33.58L90.38 37.696L90.464 41H86.488ZM84.08 38.2C84.5653 38.2 85.0786 38.1067 85.62 37.92V35.848H85.396C84.0146 35.848 83.2493 35.9227 83.1 36.072C83.0066 36.1653 82.932 36.3053 82.876 36.492C82.8386 36.6787 82.82 36.856 82.82 37.024C82.82 37.472 82.9226 37.78 83.128 37.948C83.3333 38.116 83.6506 38.2 84.08 38.2Z" fill="white"/>
</svg>
